HIERARCHY
ROOT pelvis
{
  OFFSET 0 100 0
  CHANNELS 6 Xposition Yposition Zposition Zrotation Xrotation Yrotation
  JOINT pelvis_right_femur
  {
    OFFSET -10.78128 -3.44521 -0.5502486
    CHANNELS 3 Zrotation Xrotation Yrotation
    JOINT right_femur_tibia
    {
      OFFSET -0.8047443 -44.0398 -0.1307829
      CHANNELS 3 Zrotation Xrotation Yrotation
      JOINT right_tibia_foot
      {
        OFFSET 3.006224 -47.83518 -5
        CHANNELS 3 Zrotation Xrotation Yrotation
        End Site
        {
          OFFSET 0 -5 15
        }
      }
    }
  }
  JOINT pelvis_left_femur
  {
    OFFSET 10.78128 -3.44521 -0.5502486
    CHANNELS 3 Zrotation Xrotation Yrotation
    JOINT left_femur_tibia
    {
      OFFSET 0.8047443 -44.0398 -0.1307829
      CHANNELS 3 Zrotation Xrotation Yrotation
      JOINT left_tibia_foot
      {
        OFFSET -4.370144 -48.10324 -4.275266
        CHANNELS 3 Zrotation Xrotation Yrotation
        End Site
        {
          OFFSET 0 -5 15
        }
      }
    }
  }
  JOINT pelvis_spine1
  {
    OFFSET 0 6.468898 -3.129235
    CHANNELS 3 Zrotation Xrotation Yrotation
    JOINT spine1
    {
      OFFSET 0 23.15396 4.99043
      CHANNELS 3 Zrotation Xrotation Yrotation
      JOINT spine2
      {
        OFFSET 0 20.79997 -5.064912
        CHANNELS 3 Zrotation Xrotation Yrotation
        JOINT neck
        {
          OFFSET 0 14.38658 9.616178
          CHANNELS 3 Zrotation Xrotation Yrotation
          End Site
          {
            OFFSET 0 20 0
          }
        }
      }
      JOINT right_manubrium
      {
        OFFSET -5.722621 16.35077 3.967754
        CHANNELS 3 Zrotation Xrotation Yrotation
        JOINT right_clavicle
        {
          OFFSET -13.16364 1.694482 -4.693211
          CHANNELS 3 Zrotation Xrotation Yrotation
          JOINT right_humerus
          {
            OFFSET -28.5034 -0.3100689 -2.792744
            CHANNELS 3 Zrotation Xrotation Yrotation
            JOINT right_radius
            {
              OFFSET -25.15693 0.02248979 -1.271978
              CHANNELS 3 Zrotation Xrotation Yrotation
              End Site
              {
                OFFSET -15 0 0
              }
            }
          }
        }
      }
      JOINT left_manubrium
      {
        OFFSET 5.722621 16.35077 3.967754
        CHANNELS 3 Zrotation Xrotation Yrotation
        JOINT left_clavicle
        {
          OFFSET 13.16364 1.694482 -4.693211
          CHANNELS 3 Zrotation Xrotation Yrotation
          JOINT left_humerus
          {
            OFFSET 29.39168 -1.063119 -2.237045
            CHANNELS 3 Zrotation Xrotation Yrotation
            JOINT left_radius
            {
              OFFSET 24.59957 -0.9528479 0.9047498
              CHANNELS 3 Zrotation Xrotation Yrotation
              End Site
              {
                OFFSET 15 -0 -0
              }
            }
          }
        }
      }
    }
  }
}
MOTION
Frames: 21
Frame Time: 0.0416666666667
0 103.5113 0 2.553644 -2.727963 0.2640933 1.073539 -12.14075 7.541838 -0 39.53944 -0 -5.094846 -16.31029 -4.859128 -7.789905 13.80091 -25.77192 -0 3.649036 -0 0.2832261 -20.67676 23.76013 -5.06952 -3.052984 3.688025 1.879866 7.870638 -7.326415 0.7986117 23.74183 7.532147 4.05544 -21.79735 8.171639 7.01773 -18.63956 11.04305 86.45495 37.64713 -21.42529 -0 0 15.9324 -7.560845 7.575704 4.793286 3.789279 -17.96719 -3.95206 -99.56472 42.01425 27.57004 0 0 -20.38995 -12.35476 14.96317 28.10053
0.1853199 103.8831 1.043038 1.974177 -1.892364 0.3840672 1.969181 -14.949 8.054431 -0 39.58149 -0 -5.324003 -15.58435 -4.883371 -7.31975 13.70651 -25.63342 -0 3.419515 -0 -0.3179434 -21.44023 23.25694 -4.683384 -2.591898 3.635392 1.950555 7.556042 -7.439418 0.8293085 23.24217 7.778814 4.248238 -22.43244 8.388803 7.107292 -18.53519 11.00632 86.48253 38.16768 -21.37118 -0 0 16.12326 -6.86382 7.564449 4.631614 4.070165 -18.0577 -3.39632 -99.66723 41.79348 27.77808 0 0 -20.54176 -11.88675 14.84316 27.9876
0.4467691 102.7114 4.146269 1.019612 -5.022075 0.4316056 -0.190502 -22.49383 -1.885251 -0 25.02626 -0 -8.122158 -4.752609 -2.472871 -6.095441 14.18839 -15.70226 -0 2.50957 -0 1.561605 -21.5788 17.63862 -3.171047 -0.6925922 1.904071 2.122693 9.883574 -7.519029 0.9369784 23.89922 7.222538 3.110303 -21.38364 7.930882 1.406122 -18.9918 11.73685 90.7998 25.20504 -21.68579 -0 0 8.828427 -17.74523 7.433073 9.735404 5.069029 -22.4796 -6.583762 -87.17714 29.57306 14.25835 0 0 -29.42902 0.09918019 16.80334 13.26791
0.6178778 101.3557 7.451926 1.439096 -5.48866 0.5156824 -0.84114 -23.98005 -3.686885 -0 21.8885 -0 -8.601363 -2.671403 -1.925675 -6.187644 14.67672 -15.26802 -0 1.161969 -0 1.197372 -22.71942 16.79427 -3.179783 -0.1520026 1.874345 1.639036 9.805449 -6.933811 1.178709 24.36545 7.122931 3.221885 -20.81421 7.8262 0.502956 -18.88935 11.65287 92.03377 24.50536 -22.02238 -0 0 7.773362 -18.68192 7.471015 9.926024 5.249364 -22.926 -7.530451 -86.40815 30.72777 13.23397 0 0 -32.30235 -0.946891 17.46912 14.75694
0.7289775 99.73205 11.01741 1.771444 -5.684154 0.6363715 -1.245471 -25.3851 -5.395556 -0 17.85755 -0 -9.257568 -0.0750553 -1.114518 -6.189027 15.09091 -14.59993 -0 0.03417834 -0 0.5111909 -24.0369 15.88723 -2.997798 0.1614117 2.043602 1.100183 9.788222 -6.35064 1.440039 24.73723 6.946853 3.199435 -20.66181 7.826666 -0.7070832 -18.97098 11.43743 93.65218 23.75601 -22.46628 -0 0 6.855783 -19.40773 7.514259 9.788343 5.660511 -23.67939 -8.138667 -85.75369 31.16363 12.44112 0 0 -34.97293 -1.324296 18.07675 15.65283
0.8078582 97.93272 15.30865 1.764225 -6.301059 0.664506 -1.319289 -26.05646 -7.736288 -0 12.40085 -0 -10.01181 2.710701 -0.005629088 -6.108235 15.41735 -11.68694 -0 2.515116 -0 1.151476 -24.10307 15.03535 -2.620343 0.1120279 2.090576 1.025997 10.37609 -6.333865 1.388402 24.90545 6.742414 3.022696 -20.39481 7.608519 -2.26927 -18.88024 11.43736 94.93014 20.92125 -22.66025 -0 0 5.277999 -21.10398 7.597565 9.545718 6.533224 -25.33142 -8.502952 -84.21119 26.4018 9.85383 0 0 -35.90594 3.847773 18.66852 8.921621
0.8288378 96.3278 20.4537 1.675555 -6.493538 0.5941758 -0.4921977 -25.60977 -8.854528 -0 7.81389 -0 -10.46304 4.767765 0.9494484 -6.166725 15.84049 -8.826217 -0 7.77585 -0 1.846946 -23.43828 14.69018 -2.246749 -0.4203091 2.367036 1.116314 10.94973 -6.585437 1.175109 24.74154 6.574257 2.905221 -20.3535 7.342626 -3.342233 -18.57496 11.40624 95.74683 18.94595 -22.98837 -0 0 4.227172 -21.66297 7.71111 8.481738 7.56873 -26.90358 -8.195359 -83.59921 20.6483 7.860924 0 0 -35.22138 10.12095 18.04881 0.3808197
0.7924425 95.34699 26.34707 1.267386 -5.73536 0.422152 1.439448 -24.60473 -7.709683 -0 6.086204 -0 -10.4404 5.252969 1.207483 -6.228475 16.21505 -7.098009 -0 15.33264 -0 2.07055 -21.66812 14.80295 -1.788457 -1.298016 2.774746 1.422542 11.30782 -7.161746 0.8498945 23.96596 6.56702 2.883321 -20.90608 7.213346 -3.390169 -18.14654 11.37351 95.91362 19.08879 -23.5933 -0 0 4.118672 -20.43903 7.73086 6.97751 8.283306 -27.76587 -7.066066 -83.8848 15.79745 7.14998 0 0 -33.25826 14.88946 15.76598 -6.601238
0.7118799 95.36519 32.72103 0.240572 -4.17871 0.1232641 4.29737 -23.36478 -4.377354 -0 8.321097 -0 -10.11303 3.367019 0.5891519 -5.870179 15.57492 -6.841519 -0 26.36941 -0 1.54837 -17.88562 14.85292 -1.028943 -1.919154 3.030992 1.946751 11.39864 -7.979038 0.4251935 22.6154 6.89841 3.141479 -21.8725 7.233978 -1.933427 -17.50566 11.53457 95.09825 21.90825 -24.14557 -0 0 4.857661 -17.83834 8.020188 5.859505 8.189661 -27.38081 -5.560513 -84.80024 13.05907 8.059898 0 0 -29.84452 17.00681 12.72252 -10.24811
0.6145701 96.27498 39.21357 -0.8380375 -2.873656 -0.2445991 6.62315 -21.19923 -0.8807609 -0 12.03664 -0 -10.05624 0.1788673 -0.2498376 -5.101879 12.74869 -7.516159 -0 38.27828 -0 0.4740411 -13.17799 14.5629 -0.1944302 -1.859709 3.319472 2.287533 11.44166 -8.483308 0.1090238 21.4314 7.340344 3.514529 -22.80338 7.340351 -0.02254365 -17.15908 11.82893 94.04807 25.89218 -24.2349 -0 0 5.9851 -15.5767 8.785231 5.775983 7.248451 -26.12458 -4.558291 -85.8601 13.19685 10.59701 0 0 -26.63435 16.26394 10.62207 -9.345938
0.5281758 97.67818 45.62258 -1.272614 -2.801968 -0.6959275 7.494106 -17.15705 0.9868501 -0 14.16107 -0 -10.36156 -2.416533 -0.6842519 -4.312788 7.892136 -7.701161 -0 48.342 -0 -0.2744136 -9.181669 14.39856 0.2939732 -1.476204 3.965222 2.220039 11.81118 -8.465015 -0.03974155 20.93415 7.487742 3.758826 -23.12509 7.228948 1.08779 -17.44917 12.1298 93.22818 28.54232 -23.68119 -0 0 7.241549 -14.93864 9.7334 6.293652 6.186859 -25.03165 -4.35737 -86.9397 14.12124 13.77308 0 0 -24.1264 14.83927 9.749789 -6.88002
0.441094 99.27775 51.83655 -1.166572 -3.634542 -1.23913 7.43447 -12.14575 1.681153 -0 14.42055 -0 -10.77736 -4.053794 -0.8819788 -3.570291 2.352036 -7.226584 -0 54.86321 -0 -0.4281908 -6.435931 14.68989 0.4282414 -1.135479 4.87313 1.871211 12.47506 -8.127954 -0.034299 20.8854 7.263359 3.785104 -22.93248 6.912809 1.245448 -18.30498 12.36729 92.71122 29.43943 -22.6925 -0 0 8.69695 -15.44769 10.44038 6.923903 5.358019 -24.42203 -4.631618 -87.94518 14.59107 16.84971 0 0 -22.16458 13.66898 9.532014 -4.675244
0.3359703 100.8766 57.78558 -0.8772814 -4.746748 -1.843144 7.076201 -7.200571 2.044765 -0 13.6474 -0 -11.14504 -5.20893 -1.079813 -2.77306 -3.035867 -6.477646 -0 57.70262 -0 -0.2256556 -4.677364 15.30867 0.4028043 -0.8911721 5.840228 1.413064 13.23963 -7.663192 0.0923806 20.9505 6.78742 3.599731 -22.58309 6.557453 0.8009529 -19.56051 12.52924 92.45471 29.29536 -21.47184 -0 0 10.42546 -16.34566 10.86236 7.58799 4.691194 -24.08837 -5.054707 -88.81555 14.7177 19.75656 0 0 -20.69813 12.5854 9.537893 -2.659699
0.2175506 102.2878 63.46035 -0.5370452 -5.922681 -2.48436 6.609186 -2.497572 2.12676 -0 12.2948 -0 -11.25656 -6.146515 -1.18122 -1.885439 -7.989279 -5.587803 -0 57.27052 -0 0.1187389 -3.710274 16.0662 0.2704858 -0.7398542 6.727329 0.917897 13.93422 -7.114752 0.2712838 21.07683 6.171833 3.337472 -22.04646 6.143626 0.181533 -20.93561 12.63529 92.04644 28.54429 -19.92624 -0 0 12.45869 -17.4441 11.14623 8.236263 4.26048 -23.84623 -5.518424 -89.6617 14.54449 22.35214 0 0 -19.09833 11.74731 9.791939 -1.242386
0.1077593 103.3697 68.90658 -0.2354674 -7.023983 -3.152618 6.146923 1.872551 1.850985 -0 10.70448 -0 -11.01244 -6.985764 -1.09055 -0.9023816 -12.27448 -4.67795 -0 53.96975 -0 0.4579747 -3.355308 16.83847 0.07664948 -0.7069459 7.412702 0.4234906 14.4517 -6.513616 0.4567167 21.23842 5.511285 3.13856 -21.27066 5.644694 -0.2805393 -22.20739 12.71276 91.1949 27.4483 -18.0177 -0 0 14.76182 -18.7249 11.40302 8.862152 4.146287 -23.61061 -5.966444 -90.55648 14.05712 24.44216 0 0 -16.82911 11.30799 10.36949 -0.8186241
0.03508611 104.0404 74.20655 -0.06600471 -7.950513 -3.856107 5.784814 5.775043 1.170552 -0 9.238785 -0 -10.4908 -7.783676 -0.7993184 0.1455251 -15.62289 -3.939428 -0 48.26573 -0 0.6780764 -3.41145 17.53803 -0.1051061 -0.8186512 7.780892 -0.04545249 14.74255 -5.897568 0.6390709 21.40373 4.885781 3.10031 -20.27063 5.083821 -0.3926213 -23.23568 12.77504 89.82478 26.14782 -15.80858 -0 0 17.22453 -20.21174 11.72241 9.504408 4.372461 -23.34865 -6.361681 -91.53702 13.29082 25.88547 0 0 -13.56704 11.32752 11.34572 -1.533838
0.02513581 104.2788 79.45269 -0.09777009 -8.647377 -4.619628 5.558145 9.09788 -0.02354979 -0 8.182494 -0 -9.916048 -8.550504 -0.2954951 1.165813 -17.77907 -3.669895 -0 40.74234 -0 0.6162621 -3.709113 18.08838 -0.2074764 -1.078975 7.729551 -0.4881784 14.76856 -5.275648 0.8269972 21.57989 4.404582 3.340888 -19.07558 4.517829 -0.03169974 -23.87509 12.80396 87.93983 24.73928 -13.39105 -0 0 19.66005 -21.97684 12.18849 10.18334 4.985381 -23.06512 -6.675368 -92.70462 12.30896 26.55734 0 0 -8.937361 11.90662 12.84894 -3.494702
0.09534802 104.1311 84.72554 -0.3583706 -9.047357 -5.474144 5.38039 11.70688 -1.77402 -0 7.735835 -0 -9.721778 -9.206709 0.4448842 1.986861 -18.57396 -4.282056 -0 32.19127 -0 0.01299651 -4.131345 18.41813 -0.1773867 -1.444225 7.238004 -0.9251995 14.51029 -4.631064 1.037279 21.77647 4.24321 3.970007 -17.85678 4.087548 0.7729723 -24.03435 12.71349 85.74852 23.44048 -10.95727 -0 0 21.75909 -24.03536 12.80689 10.90194 6.007575 -22.81046 -6.830166 -94.16294 11.26982 26.46366 0 0 -2.867645 13.05457 14.85658 -6.470384
0.2583966 103.7244 90.10225 -0.7494001 -9.050367 -6.412431 4.908485 13.5059 -3.836817 -0 8.188968 -0 -10.53199 -9.388838 1.477469 2.35021 -18.07602 -6.108394 -0 23.77565 -0 -1.440505 -4.648802 18.49687 -0.03300097 -1.799004 6.498542 -1.384543 13.98964 -3.945731 1.248724 21.97076 4.654543 5.022408 -17.00386 4.025389 1.731953 -23.75859 12.33232 83.75234 22.81638 -8.855526 -0 0 23.04883 -26.17598 13.32261 11.61774 7.323848 -22.6608 -6.657282 -95.79821 10.42718 25.90321 -0 0 3.722959 14.40951 16.85533 -9.437099
0.5270301 103.2933 95.71486 -0.9080305 -8.673521 -7.305883 3.490663 14.58643 -5.335982 -0 10.66244 -0 -12.75482 -8.175371 2.837799 1.895595 -16.73821 -8.85138 -0 17.23182 -0 -3.658373 -5.238348 18.55372 0.002119402 -1.947401 6.00275 -1.869044 13.28744 -3.25512 1.328281 22.14295 5.816014 6.363892 -16.78755 4.4624 2.361969 -23.19017 11.51407 82.57976 23.88967 -7.527967 -0 0 22.95203 -27.72591 12.93351 12.14814 8.437239 -22.54547 -6.046794 -96.8709 9.982552 25.47729 -0 0 8.180771 14.92926 17.53153 -10.31756
0.8889093 103.1502 101.7257 -0.3768204 -8.500732 -7.912078 0.8059944 15.01895 -4.960672 -0 17.80934 -0 -15.45939 -4.492962 4.235543 0.3333369 -15.07591 -11.19893 -0 14.20656 -0 -5.150029 -5.550192 19.36039 -0.4861018 -1.70734 6.046311 -2.35455 12.55948 -2.635014 1.152708 22.48279 7.265376 7.600509 -16.30505 4.913462 2.666946 -22.23598 10.5442 82.25734 27.14439 -7.011444 -0 0 21.3102 -27.91617 10.74809 12.33068 8.381746 -21.9036 -5.594473 -96.13615 9.965251 25.32806 -0 0 7.59834 13.78037 15.69629 -7.760157
